<svg id="Ebene_1" data-name="Ebene 1" xmlns="http://www.w3.org/2000/svg" viewBox="0 0 500 94.21"><defs><style>.cls-1{fill:#6a6d6d}.cls-2{fill:#ff6a00}</style></defs><path class="cls-1" d="M294.82 3.66A70.42 70.42 0 00275 .65c-24.65 0-39.88 14.83-39.88 36.78 0 20.24 12.13 33.17 34.87 33.17a61.45 61.45 0 0024.35-4.71V32.52h-18.66v20.54a14 14 0 01-3.81.5c-11.52 0-16.53-6.91-16.53-17.44 0-10.92 6.41-18.64 18.74-18.64A49.68 49.68 0 01292 20.8zm92.81.46h-17.56l-5.26 24.42c-.94 4.42-1.79 9.3-2.54 14.75h-.09a100.81 100.81 0 00-2.54-13.9l-6.39-25.27h-17.56L329 30.33a110.45 110.45 0 00-2.35 13.52h-.09a98.82 98.82 0 00-2-13.81l-5.78-25.92h-18.5l15.22 63.4h19.82l5.54-24.42a99 99 0 002.35-15.5h.1a151.8 151.8 0 002.44 16.16L351 67.53h21.23zm12.47 79.57c.68-2.72-.36-4.24-3.82-4.24-4 0-5.85 2.31-7 6.82-1.16 4.67-1 7.16 2.89 7.16a4.8 4.8 0 003.67-1.5l-.31 1.24h2.33l1.8-7.27h-5.12l-.49 2h2.09l-.34 1.38a2.89 2.89 0 01-2.49 2.16c-1.82 0-1.67-2-.86-5.29s1.78-4.69 3.32-4.69c1.27 0 1.49 1.26 1.24 2.25zM383.28 82v6h-3.08zm-8.84 11.11h3.29l1.43-2.84h4.18v2.84h3.3l-.82-13.44h-3.91zM359.29 89l-.14.55c-.62 2.49.44 3.92 4 3.92s5.77-1.28 6.47-4.12c.41-1.64 0-2.68-2.1-3.56l-2.21-.9c-1.22-.49-1.38-1-1.17-1.83a2 2 0 012.19-1.57c1.21 0 1.53.74 1.22 2h3l.09-.38c.64-2.58-1.15-3.61-4-3.61s-5.19 1.34-5.84 4c-.56 2.24.49 3.24 3.1 4.07 1.93.62 2.55 1.07 2.24 2.3a2.28 2.28 0 01-2.3 1.66c-1.67 0-1.89-.81-1.57-2.07l.1-.39zm-9.11-9.25l-2.33 9.38c-.89 3.6 1.37 4.33 3.94 4.33s5.23-.9 6.08-4.33l2.33-9.38H357l-2.33 9.38c-.33 1.34-1 2.34-2.42 2.34s-1.6-1-1.27-2.34l2.33-9.38zm-4.54 13.44l.55-2.22h-5.6l2.78-11.22h-3.17l-3.33 13.44zM331.47 81.7h1.32c1.58 0 2 .75 1.68 2.07a2.5 2.5 0 01-2.61 2h-1.41zm-6 11.45h3.16l1.37-5.36h1.69c3 0 5.3-1.26 6-4 .5-2-.1-4-3.31-4h-5.58z"/><path class="cls-2" d="M316.47 79.71l-3.34 13.44h9l.55-2.22h-5.82l.9-3.62H323l.55-2.22h-5.25l.79-3.17h5.6l.55-2.22zm-3.06 4.54c.48-2 .86-4.8-3.67-4.8-4.74 0-6.06 2.9-7.07 7s-1.14 7 3.61 7c4.15 0 5.61-2.5 6.33-5.4h-3.16c-.72 2.9-1.68 3.41-2.82 3.41-1.36 0-1.84-.73-.83-4.8.94-3.81 1.66-5.18 3.26-5.18 1.43 0 1.68.85 1.19 2.81zM299 93.15l3.33-13.44h-3.16l-3.33 13.44zm-12.43-13.44l.27 13.44h4.07l6.94-13.44h-3.27l-4.8 9.94h-.06l.25-9.94zM272 93.15h3.16l1.41-5.69h1.69c1.27 0 1.66.64 1.45 1.69l-.55 2.58a2.13 2.13 0 000 1.41h3.43V93c-.53-.26-.44-1-.11-2.41.66-2.84.58-3.86-1.51-4.11a4.11 4.11 0 003.44-3.32c.57-2.3-.72-3.46-3.32-3.46h-5.84zm6-11.45h1.5c1.43 0 2 .62 1.73 1.87a2.56 2.56 0 01-2.87 2H277zm-13.24-2l-3.34 13.44h9l.55-2.22h-5.82l.9-3.62h5.27l.55-2.22h-5.28l.79-3.17H273l.55-2.22zM250.5 89l-.14.55c-.61 2.49.44 3.92 4 3.92s5.77-1.28 6.47-4.12c.41-1.64 0-2.68-2.11-3.56l-2.21-.9c-1.22-.49-1.38-1-1.17-1.83a2 2 0 012.19-1.56c1.21 0 1.53.73 1.22 2h3l.1-.38c.64-2.58-1.15-3.61-4-3.61-3 0-5.19 1.34-5.84 4-.56 2.24.49 3.24 3.1 4.07 1.93.62 2.55 1.07 2.24 2.3a2.28 2.28 0 01-2.3 1.66c-1.67 0-1.89-.81-1.57-2.07l.1-.4z"/><path class="cls-1" d="M469 74.93l3.56-16.76c-19.57-1-22.48-9.21-43.24-11.25L427.6 55a13.37 13.37 0 01-5.6 1.27c-9.52 0-13.43-7.4-13.43-19.57 0-13.43 7-18.72 13.86-18.72 9.41 0 14 6.45 14 18.93a34.68 34.68 0 01-.27 4.32c8.74 1.49 14 4.16 19.71 6.46A45.2 45.2 0 00457.29 36c0-25.91-14.81-36-33.42-36-20 0-36.28 15.12-36.28 38.18 0 22.64 11 36.17 33.42 36.17a36.13 36.13 0 0021-6.46c7.24 3 13.83 6.5 27 7"/><path class="cls-2" d="M480.12 24.43l-2.72 12.22h-12.81L462.51 46h12.8l-2.72 12.22h9.8L485.11 46h12.81l2.08-9.35h-12.81l2.72-12.22h-9.79z"/><path class="cls-1" d="M194.16 93.42h1.09v-5.21a2.82 2.82 0 012.56-3.06h.25c1.77 0 2.27 1.16 2.27 2.7v5.58h1.09v-5.76c0-2.13-.76-3.44-3.27-3.44a3 3 0 00-2.86 1.8v-1.55h-1.09zm-8.33-5.09c.17-1.63 1.16-3.19 2.95-3.19a3 3 0 012.84 3.15zm6.87.92c.09-2.51-1-5-3.93-5s-4 2.37-4 4.73c0 2.55 1.19 4.73 4 4.73a3.64 3.64 0 003.89-3.2h-1.09a2.72 2.72 0 01-2.81 2.29c-2.1 0-2.93-1.92-2.95-3.52zm-9.4-2.15c-.07-1.94-1.49-2.87-3.27-2.87-1.58 0-3.36.69-3.36 2.51 0 1.52 1.07 2 2.49 2.39l1.4.31c1 .24 2 .59 2 1.63 0 1.25-1.42 1.7-2.44 1.7a2.37 2.37 0 01-2.62-2.07v-.16h-1.1c.17 2.18 1.59 3.15 3.67 3.15 1.66 0 3.58-.74 3.58-2.68a2.62 2.62 0 00-2.54-2.48l-1.45-.33c-.74-.19-1.86-.54-1.86-1.51 0-1.16 1.15-1.54 2.11-1.54a2.06 2.06 0 012.32 1.76 1.94 1.94 0 010 .24zm-8.33 0c-.07-1.94-1.49-2.87-3.27-2.87-1.58 0-3.36.69-3.36 2.51 0 1.52 1.07 2 2.49 2.39l1.4.31c1 .24 2 .59 2 1.63 0 1.25-1.42 1.7-2.44 1.7a2.37 2.37 0 01-2.62-2.07v-.16H168c.17 2.18 1.59 3.15 3.67 3.15 1.66 0 3.58-.74 3.58-2.68a2.62 2.62 0 00-2.54-2.48l-1.45-.33c-.74-.19-1.86-.54-1.86-1.51 0-1.16 1.15-1.54 2.11-1.54a2.06 2.06 0 012.32 1.76 1.94 1.94 0 010 .24zm-14.44.12c0-1.45 1-2.08 2.39-2.08s2.34.36 2.34 1.84c0 1-.5 1.11-1.4 1.21-2.36.28-4.8.37-4.8 2.88 0 1.8 1.35 2.61 3 2.61a3.42 3.42 0 003.26-1.82c0 .94.17 1.56 1.28 1.56a3.35 3.35 0 00.71-.07v-.92a1 1 0 01-.35.07.57.57 0 01-.64-.51.38.38 0 010-.15V87.1c0-2.39-1.71-2.87-3.29-2.87-2 0-3.52.9-3.62 3zm4.73 2.78a2.87 2.87 0 01-2.92 2.82h-.2a1.87 1.87 0 01-2-1.71V91c0-1.75 2.31-1.73 4.16-2.06.29 0 .78-.14.92-.4zm-14.37 3.46H152V90l1.77-1.47 3.53 4.86h1.37l-4.07-5.63 3.81-3.31H157l-5 4.33v-7.72h-1.09zm-9.31 0h1.09v-5.25a2.82 2.82 0 012.56-3.06h.25c1.77 0 2.27 1.16 2.27 2.7v5.58h1.09v-5.76c0-2.13-.76-3.44-3.27-3.44a3 3 0 00-2.86 1.8v-1.55h-1.09zm-8.33-5.09c.17-1.63 1.16-3.19 2.94-3.19a3 3 0 012.81 3.15zm6.87.92c.09-2.51-1.05-5-3.93-5s-4 2.37-4 4.73c0 2.55 1.19 4.73 4 4.73a3.65 3.65 0 003.9-3.2H139a2.72 2.72 0 01-2.81 2.29c-2.1 0-2.93-1.92-2.94-3.52zM124 93.46h1V90l1.77-1.47 3.53 4.86h1.37l-4.07-5.63 3.81-3.31H130l-5 4.33v-7.72h-1.09zm-9.32 0h1.09v-5.25a2.82 2.82 0 012.56-3.06h.25c1.77 0 2.27 1.16 2.27 2.7v5.58h1.09v-5.76c0-2.13-.76-3.44-3.27-3.44a3 3 0 00-2.86 1.8v-1.55h-1.09zm-8-6.2c0-1.45 1-2.08 2.39-2.08s2.34.36 2.34 1.84c0 1-.5 1.11-1.4 1.21-2.36.28-4.79.37-4.79 2.88 0 1.8 1.35 2.61 3 2.61a3.42 3.42 0 003.26-1.82c0 .94.17 1.56 1.28 1.56a3.35 3.35 0 00.71-.07v-.92a1 1 0 01-.35.07.57.57 0 01-.64-.51.38.38 0 010-.15V87.1c0-2.39-1.71-2.87-3.29-2.87-2 0-3.51.9-3.62 3zm4.69 2.74a2.87 2.87 0 01-2.92 2.82h-.2a1.87 1.87 0 01-2-1.71V91c0-1.75 2.3-1.73 4.16-2.06.29 0 .78-.14.92-.4zm-11.17 3.42h1.09v-4.76a3.08 3.08 0 012.94-3.22h.38v-1.08a3.3 3.3 0 00-3.38 2.21v-2.09h-1zm-11 0h1.18v-4.24L92.73 87l5.14 6.44h1.53l-5.78-7.26 5.52-5.11h-1.59l-7.19 6.65v-6.66h-1.18zM81 82.8h1.09v-1.74H81zm0 10.62h1.09v-8.94H81zm-8.37-5.09c.17-1.63 1.16-3.19 2.94-3.19a3 3 0 012.84 3.15zm6.87.92c.09-2.51-1-5-3.93-5s-4 2.37-4 4.73c0 2.55 1.19 4.73 4 4.73a3.65 3.65 0 003.9-3.2h-1.11a2.72 2.72 0 01-2.81 2.29c-2.1 0-2.93-1.92-2.94-3.52zM62 93.42h1v-1.7a3.35 3.35 0 003.19 2c2.72 0 4-2.2 4-4.73s-1.3-4.73-4-4.73a3.18 3.18 0 00-3.1 2v-5.2H62zM69.18 89c0 1.85-.85 3.81-2.93 3.81-2.32 0-3.14-2-3.14-3.81s.81-3.81 3.14-3.81c2.08 0 2.93 2 2.93 3.81m-15.36-7.2h-1.09v2.68h-1.56v.92h1.56v6.12c0 1.52.48 2 1.94 2h1v-.93h-.94c-.78 0-.88-.47-.88-1.18v-6h1.82v-.92h-1.85zm-8.21-.61h-1.17v1.75h1.18zm3.07 0H47.5v1.75h1.18zm-4.59 6c0-1.45 1-2.08 2.39-2.08s2.34.36 2.34 1.84c0 1-.5 1.11-1.4 1.21-2.36.28-4.8.37-4.8 2.88 0 1.8 1.35 2.61 3 2.61a3.42 3.42 0 003.26-1.82c0 .94.17 1.56 1.28 1.56a3.35 3.35 0 00.71-.07v-.92a1 1 0 01-.35.07.57.57 0 01-.64-.51.38.38 0 010-.15V87.1c0-2.39-1.71-2.87-3.29-2.87-2 0-3.52.9-3.62 3zM48.82 90a2.87 2.87 0 01-2.92 2.82h-.2a1.87 1.87 0 01-2-1.71V91c0-1.75 2.31-1.73 4.16-2.06.29 0 .78-.14.92-.4zm-9.11-8.2h-1.09v2.68h-1.56v.92h1.56v6.12c0 1.52.48 2 1.94 2h1v-.93h-.94c-.78 0-.88-.47-.88-1.18v-6h1.82v-.92h-1.85zm-4.92 1h1.09v-1.74h-1.09zm0 10.62h1.09v-8.94h-1.09zm-3.2 0h1.09V81.06h-1.09zm-8-6.2c0-1.45 1-2.08 2.39-2.08s2.32.36 2.32 1.86c0 1-.5 1.11-1.4 1.21-2.36.28-4.8.37-4.8 2.88 0 1.8 1.35 2.61 3 2.61a3.42 3.42 0 003.26-1.82c0 .94.17 1.56 1.28 1.56a3.35 3.35 0 00.71-.07v-.92a1 1 0 01-.35.07.57.57 0 01-.64-.51.38.38 0 010-.15V87.1c0-2.39-1.71-2.87-3.29-2.87-2 0-3.52.9-3.62 3zM28.3 90a2.87 2.87 0 01-2.92 2.82h-.2a1.87 1.87 0 01-2-1.71V91c0-1.75 2.31-1.73 4.16-2.06.29 0 .78-.14.92-.4zm-7.78-5.47h-1.09v4.69c0 1.82-.81 3.58-2.68 3.58s-2.34-.85-2.39-2.46v-5.86h-1.09v5.8c0 2.08.88 3.39 3.13 3.39a3.32 3.32 0 003.08-1.87v1.61h1zm-9 9l-1.74-1.39a6.74 6.74 0 001.87-4.9c0-3.38-1.94-6.44-5.82-6.44S0 83.86 0 87.24s1.94 6.44 5.83 6.44A5.57 5.57 0 009 92.76l2 1.45zM7.1 90.09l-.61.74 1.63 1.23a4.19 4.19 0 01-2.29.61c-3.27 0-4.66-2.74-4.66-5.44s1.39-5.43 4.67-5.43 4.64 2.74 4.64 5.44a5.84 5.84 0 01-1.58 4.22zm194.3-28.52h-1.09v5.13a3.18 3.18 0 00-3.1-2c-2.72 0-4 2.2-4 4.73s1.3 4.73 4 4.73a3.55 3.55 0 003.19-2v1.69h1zm-7.15 7.89c0-1.85.85-3.81 2.93-3.81 2.32 0 3.14 2 3.14 3.81s-.81 3.81-3.14 3.81c-2.08 0-2.93-2-2.93-3.81m-10 4.47h1.09v-5.21a2.82 2.82 0 012.56-3.06h.25c1.77 0 2.27 1.16 2.27 2.7v5.58h1.09v-5.75c0-2.13-.76-3.44-3.27-3.44a3 3 0 00-2.86 1.8V65h-1.09zm-2-8.93h-1.09v4.7c0 1.82-.81 3.58-2.68 3.58s-2.34-.85-2.39-2.46V65H175v5.8c0 2.08.88 3.39 3.13 3.39a3.32 3.32 0 003.08-1.87v1.61h1zm-15.45-2.68h-1.09V65h-1.56v.92h1.56V72c0 1.52.48 2 1.94 2h1v-.93c-.31 0-.63.05-.94.05-.78-.05-.88-.47-.88-1.18v-6h1.82V65h-1.82zm-4.92 1H163v-1.75h-1.09zm0 10.62H163V65h-1.09zm-8.37-5.09c.17-1.63 1.16-3.19 3-3.19a3 3 0 012.84 3.15zm6.87.92c.09-2.51-1-5-3.93-5s-4 2.37-4 4.73c0 2.55 1.19 4.73 4 4.73a3.64 3.64 0 003.89-3.2h-1.14a2.72 2.72 0 01-2.81 2.29c-2.1 0-2.93-1.92-2.95-3.52zm-16.17 4.17h1.09v-3.4l1.7-1.47 3.53 4.86h1.37l-4.07-5.63 3.81-3.3h-1.45l-5 4.33v-7.76h-1.09zm-9.32 0H136v-5.22a2.82 2.82 0 012.56-3.06h.25c1.77 0 2.27 1.16 2.27 2.7v5.58h1.09v-5.75c0-2.13-.76-3.44-3.27-3.44a3 3 0 00-2.86 1.8v-5h-1.09zm-1.58-6.13a3.34 3.34 0 00-3.6-3.06c-2.74 0-4.22 2.16-4.22 4.73s1.49 4.73 4.22 4.73a3.64 3.64 0 003.69-3.46h-1.09a2.67 2.67 0 01-2.6 2.55c-2.1 0-3.13-1.9-3.13-3.81s1-3.81 3.13-3.81a2.43 2.43 0 012.53 2.15zm-10.58-4.49h1.09v-1.75h-1.09zm0 10.62h1.09V65h-1.09zm-3.2 0h1.09V61.57h-1.09zm-3.41-11.62H115V65h-1.56v.92H115V72c0 1.52.48 2 1.94 2h1v-.93c-.31 0-.63.05-.94.05-.78-.05-.88-.47-.88-1.18v-6h1.82V65h-1.82zM113.29 65h-1.77v-.78c0-1 0-1.73 1.19-1.73a5.29 5.29 0 01.8.09v-.93a5.62 5.62 0 00-.92-.07c-1.75 0-2.18 1.07-2.16 2.61V65h-1.52v.92h1.52v8h1.09v-8h1.77zm-11.45 2.73c0-1.45 1-2.08 2.39-2.08s2.34.36 2.34 1.84c0 1-.5 1.11-1.4 1.21-2.36.28-4.79.37-4.79 2.88 0 1.8 1.35 2.61 3 2.61a3.42 3.42 0 003.26-1.82c0 .94.17 1.56 1.28 1.56a3.35 3.35 0 00.71-.07V73a1 1 0 01-.35.07.57.57 0 01-.64-.51.38.38 0 010-.15v-4.79c0-2.39-1.71-2.87-3.29-2.87-2 0-3.51.9-3.62 3zm4.73 2.74a2.87 2.87 0 01-2.92 2.82h-.2a1.87 1.87 0 01-2-1.71v-.06c0-1.75 2.3-1.73 4.16-2.06.3 0 .78-.14.92-.4zm-15 3.46h1.09v-5.21a2.82 2.82 0 012.56-3.06h.25c1.77 0 2.27 1.16 2.27 2.7v5.58h1.09v-5.75c0-2.13-.76-3.44-3.27-3.44a3 3 0 00-2.86 1.8v-5h-1.16zM90 67.81a3.34 3.34 0 00-3.6-3.06c-2.74 0-4.22 2.16-4.22 4.73s1.49 4.73 4.22 4.73a3.65 3.65 0 003.6-3.48h-1.06a2.67 2.67 0 01-2.6 2.55c-2.1 0-3.13-1.9-3.13-3.81s1-3.81 3.13-3.81a2.43 2.43 0 012.53 2.15zm-9.28-.19c-.07-1.94-1.49-2.87-3.27-2.87-1.58 0-3.36.69-3.36 2.51 0 1.52 1.07 2 2.49 2.39L78 70c1 .24 2 .59 2 1.63 0 1.25-1.42 1.7-2.44 1.7a2.35 2.35 0 01-2.68-2 1.84 1.84 0 010-.33h-1.14c.17 2.18 1.59 3.15 3.67 3.15 1.66 0 3.58-.74 3.58-2.68A2.62 2.62 0 0078.45 69L77 68.71c-.74-.19-1.85-.54-1.85-1.51 0-1.16 1.14-1.54 2.11-1.54a2.06 2.06 0 012.32 1.76 1.94 1.94 0 010 .24zm-9.84-5.3h-1.13V65H68.2v.92h1.56V72c0 1.52.48 2 1.94 2h1v-.93c-.31 0-.63.05-.94.05-.78-.05-.88-.47-.88-1.18v-6h1.82V65h-1.86zm-7.22 11.62h1.09v-4.76a3.08 3.08 0 013-3.19h.35v-1.11a3.3 3.3 0 00-3.4 2.22V65h-1zm-3.19-10.62h1.09v-1.75h-1.09zm0 10.62h1.09V65h-1.09zm-13.75 0H48l3.12-11.07 3.13 11.07h1.24l3.41-12.36h-1.13L55 72.4l-3-10.82h-1.59l-3 10.82-2.85-10.83h-1.27zM198 54.45h1.09v-4.76a3.08 3.08 0 012.91-3.22h.38V45.4a3.3 3.3 0 00-3.38 2.21v-2.09h-1zm-6.63-12.22h-1.18V44h1.18zm3.07 0h-1.18V44h1.18zm1.56 3.29h-1.09v4.69c0 1.82-.81 3.58-2.68 3.58s-2.34-.85-2.39-2.46v-5.81h-1.14v5.8c0 2.08.88 3.39 3.13 3.39a3.32 3.32 0 003.08-1.87v1.61h1zm-8.28 0H186v-.78c0-1 0-1.73 1.19-1.73a5.29 5.29 0 01.8.09v-.93a5.62 5.62 0 00-.92-.07c-1.75 0-2.18 1.07-2.16 2.61v.81h-1.61v.92h1.52v8h1.09v-8h1.77zM176 42.84h-1.09v2.68h-1.56v.92h1.56v6.12c0 1.52.48 2 1.94 2h1v-.93h-.94c-.78 0-.88-.47-.88-1.18v-6h1.82v-.92H176zm-2.77 2.68h-1.77v-.78c0-1 0-1.73 1.19-1.73a5.29 5.29 0 01.8.09v-.93a5.62 5.62 0 00-.92-.07c-1.75 0-2.18 1.07-2.16 2.61v.81h-1.52v.92h1.52v8h1.09v-8h1.77zm-11.45 2.73c0-1.45 1-2.08 2.39-2.08s2.34.36 2.34 1.84c0 1-.5 1.11-1.4 1.21-2.36.28-4.79.37-4.79 2.88 0 1.8 1.35 2.61 3 2.61a3.42 3.42 0 003.26-1.82c0 .94.17 1.56 1.28 1.56a3.35 3.35 0 00.71-.07v-.92a1 1 0 01-.35.07.57.57 0 01-.64-.51.38.38 0 010-.15v-4.74c0-2.39-1.71-2.87-3.29-2.87-2 0-3.52.9-3.62 3zm4.76 2.75a2.87 2.87 0 01-2.92 2.82h-.2a1.87 1.87 0 01-2-1.71V52c0-1.75 2.3-1.73 4.16-2.06.29 0 .78-.14.92-.4zm-15 3.46h1.09v-5.22a2.82 2.82 0 012.56-3.06h.25c1.77 0 2.27 1.16 2.27 2.7v5.58h1.09V48.7c0-2.13-.76-3.44-3.27-3.44a3 3 0 00-2.86 1.8v-5h-1.09zM150 48.33a3.34 3.34 0 00-3.6-3.06c-2.74 0-4.22 2.16-4.22 4.73s1.49 4.73 4.22 4.73a3.64 3.64 0 003.6-3.48h-1.09a2.67 2.67 0 01-2.6 2.55c-2.1 0-3.13-1.9-3.13-3.81s1-3.81 3.13-3.81a2.43 2.43 0 012.53 2.15zm-9.28-.19c-.07-1.94-1.49-2.87-3.27-2.87-1.58 0-3.36.69-3.36 2.51 0 1.52 1.07 2 2.49 2.39l1.4.31c1 .24 2 .59 2 1.63 0 1.25-1.42 1.7-2.44 1.7a2.35 2.35 0 01-2.62-2.05v-.18h-1.09c.17 2.18 1.59 3.15 3.67 3.15C139 54.71 141 54 141 52a2.62 2.62 0 00-2.54-2.48l-1.46-.29c-.74-.19-1.85-.54-1.85-1.51 0-1.16 1.14-1.54 2.11-1.54a2.06 2.06 0 012.32 1.76 1.94 1.94 0 010 .24zM131 54.45h1.09V42.09H131zm-3.2 0h1.09V42.09h-1.09zm-8.37-5.09c.17-1.63 1.16-3.19 2.94-3.19a3 3 0 012.84 3.15zm6.87.92c.09-2.51-1-5-3.93-5s-4 2.37-4 4.73c0 2.55 1.19 4.73 4 4.73a3.65 3.65 0 003.9-3.2h-1.07a2.72 2.72 0 01-2.81 2.29c-2.1 0-2.93-1.92-2.94-3.52zm-9.4-2.15c-.07-1.94-1.49-2.87-3.27-2.87-1.58 0-3.36.69-3.36 2.51 0 1.52 1.07 2 2.49 2.39l1.4.31c1 .24 2 .59 2 1.63 0 1.25-1.42 1.7-2.44 1.7a2.35 2.35 0 01-2.62-2v-.18H110c.17 2.18 1.59 3.15 3.67 3.15 1.66 0 3.58-.74 3.58-2.68a2.62 2.62 0 00-2.54-2.48l-1.46-.33c-.74-.19-1.85-.54-1.85-1.51 0-1.16 1.14-1.54 2.11-1.54a2.06 2.06 0 012.32 1.76 1.94 1.94 0 010 .24zm-14.79 1.23c.17-1.63 1.16-3.19 3-3.19a3 3 0 012.84 3.15zm6.87.92c.09-2.51-1-5-3.93-5s-4 2.37-4 4.73c0 2.55 1.19 4.73 4 4.73a3.65 3.65 0 003.89-3.2h-1.09a2.72 2.72 0 01-2.85 2.29c-2.1 0-2.93-1.92-3-3.52zm-9.58-2.11h-5.21v1h4.21a4.11 4.11 0 01-3.65 4.52 4.42 4.42 0 01-.63 0c-3.28 0-4.66-2.74-4.66-5.44s1.39-5.44 4.66-5.44a3.86 3.86 0 014 3.1h1.18a4.83 4.83 0 00-5.16-4.1c-3.9 0-5.84 3.06-5.84 6.44s1.94 6.44 5.84 6.44a4.46 4.46 0 004.28-2.51l.16 2.25h.85z"/></svg>