<svg id="svg" version="1.1" xmlns="http://www.w3.org/2000/svg" xmlns:xlink="http://www.w3.org/1999/xlink" width="400" height="400" viewBox="0, 0, 400,400"><g id="svgg"><path id="path0" d="M192.676 20.117 C 87.359 25.687,12.698 124.542,36.926 226.339 C 37.242 227.667,37.500 228.821,37.500 228.904 C 37.500 228.988,36.653 229.391,35.619 229.800 C 20.623 235.735,12.008 253.747,16.753 269.245 L 17.110 270.410 16.098 271.973 C 10.350 280.845,9.154 292.569,13.029 302.051 L 13.588 303.418 13.219 304.395 C 9.494 314.252,11.407 325.426,18.436 334.863 C 32.580 353.853,86.661 372.769,126.758 372.751 C 149.312 372.740,165.462 367.467,177.980 356.025 L 179.691 354.461 182.570 354.771 C 195.132 356.121,209.126 356.056,221.178 354.591 L 223.509 354.307 225.182 355.833 C 245.044 373.939,276.956 377.651,320.410 366.910 C 336.298 362.983,356.244 355.389,367.773 348.878 C 387.656 337.650,395.790 321.939,390.412 305.152 L 389.835 303.352 390.431 301.852 C 394.166 292.450,392.965 280.676,387.400 272.138 L 386.289 270.435 386.687 269.055 C 387.958 264.642,388.249 257.916,387.347 253.780 C 384.867 242.410,377.112 233.250,366.699 229.395 C 365.625 228.997,364.725 228.652,364.698 228.627 C 364.672 228.603,364.958 227.241,365.335 225.602 C 389.362 120.946,310.477 21.151,202.832 20.025 C 198.965 19.985,194.395 20.026,192.676 20.117 M209.375 34.977 C 284.613 39.406,345.983 98.477,353.020 173.242 C 355.269 197.132,351.760 222.394,343.262 243.495 L 342.617 245.096 343.623 244.689 C 355.313 239.964,364.150 242.112,369.482 250.977 C 373.565 257.764,372.804 265.515,367.392 272.266 C 365.977 274.030,365.992 273.880,367.186 274.377 C 377.000 278.455,379.734 292.259,372.582 301.624 L 371.267 303.346 371.924 304.073 C 379.115 312.033,376.821 323.355,366.399 331.344 C 355.705 339.541,331.556 349.192,309.724 353.995 C 270.573 362.608,242.665 357.758,229.618 340.073 C 228.441 338.479,228.405 338.450,227.734 338.564 C 216.974 340.402,210.929 340.912,199.902 340.912 C 189.896 340.912,184.151 340.495,175.684 339.153 L 172.559 338.658 172.168 339.179 C 158.464 357.457,132.939 362.496,94.141 354.583 C 70.449 349.750,43.929 339.150,33.354 330.285 C 24.303 322.697,22.435 312.952,28.488 304.889 C 29.291 303.818,29.670 303.154,29.562 303.006 C 29.470 302.879,28.971 302.239,28.454 301.582 C 21.429 292.658,23.825 279.410,33.319 274.693 C 34.169 274.271,34.898 273.906,34.939 273.882 C 34.981 273.858,34.716 273.507,34.349 273.101 C 28.799 266.957,27.490 259.090,30.882 252.263 C 35.332 243.308,43.987 240.175,54.639 243.664 C 55.774 244.036,56.722 244.317,56.746 244.289 C 56.770 244.261,56.404 243.228,55.933 241.992 C 52.123 232.008,49.226 220.801,47.677 210.051 C 33.773 113.550,111.656 29.225,209.375 34.977 " stroke="none" fill="#fcfbfb" fill-rule="evenodd"></path><path id="path1" d="M143.993 120.528 C 125.859 122.637,119.588 145.922,134.143 157.102 C 138.600 160.526,140.031 160.170,143.958 154.656 C 148.513 148.262,149.830 147.857,157.031 150.644 C 163.050 152.973,164.346 152.446,166.073 146.968 C 170.492 132.955,158.688 118.819,143.993 120.528 M246.875 120.531 C 233.815 122.025,225.522 135.594,230.063 148.038 C 231.575 152.181,232.815 152.754,237.012 151.250 C 243.221 149.025,243.218 149.026,244.639 149.025 C 247.221 149.022,248.545 150.080,251.937 154.856 C 255.493 159.864,256.813 160.338,260.444 157.917 C 278.369 145.959,268.252 118.085,246.875 120.531 M147.691 187.243 C 145.909 188.121,145.418 189.850,145.565 194.720 C 146.036 210.347,154.337 227.332,165.995 236.523 C 168.024 238.123,167.857 238.099,168.472 236.878 C 172.118 229.644,179.968 222.967,188.171 220.122 C 190.748 219.228,191.641 219.735,193.841 223.340 C 199.397 232.443,200.217 232.562,205.269 225.008 C 208.749 219.803,209.390 219.339,211.880 220.212 C 219.595 222.919,226.987 229.097,230.855 236.072 L 231.309 236.891 232.988 235.466 C 243.582 226.477,250.868 211.516,252.161 196.094 C 252.815 188.298,250.934 185.814,245.514 187.316 C 243.358 187.914,241.387 188.775,234.315 192.212 C 204.689 206.611,192.948 206.535,162.402 191.745 C 152.697 187.046,149.855 186.176,147.691 187.243 " stroke="none" fill="#3c3c43" fill-rule="evenodd"></path><path id="path2" d="M199.268 34.710 C 199.563 34.755,200.046 34.755,200.342 34.710 C 200.637 34.665,200.396 34.629,199.805 34.629 C 199.214 34.629,198.972 34.665,199.268 34.710 M192.236 34.906 C 192.532 34.950,193.015 34.950,193.311 34.906 C 193.606 34.861,193.364 34.824,192.773 34.824 C 192.183 34.824,191.941 34.861,192.236 34.906 M206.494 34.906 C 206.790 34.950,207.273 34.950,207.568 34.906 C 207.864 34.861,207.622 34.824,207.031 34.824 C 206.440 34.824,206.199 34.861,206.494 34.906 M188.916 35.096 C 189.104 35.145,189.412 35.145,189.600 35.096 C 189.788 35.046,189.634 35.006,189.258 35.006 C 188.882 35.006,188.728 35.046,188.916 35.096 M210.010 35.096 C 210.198 35.145,210.505 35.145,210.693 35.096 C 210.881 35.046,210.728 35.006,210.352 35.006 C 209.976 35.006,209.822 35.046,210.010 35.096 M193.164 45.815 C 192.681 45.855,190.835 45.983,189.063 46.102 C 135.006 49.715,86.668 85.397,66.702 136.426 C 55.571 164.876,54.038 198.254,62.545 226.938 L 62.802 227.802 63.797 226.536 C 68.201 220.932,75.774 219.060,83.477 221.671 C 90.729 224.130,96.002 228.768,103.958 239.685 L 105.621 241.967 105.964 241.052 C 109.648 231.241,117.993 225.793,126.785 227.458 C 134.266 228.874,140.308 235.237,143.742 245.313 C 147.232 255.554,157.304 271.300,166.420 280.768 C 181.599 296.531,185.502 310.406,179.232 326.306 L 178.388 328.445 180.259 328.686 C 193.919 330.444,206.621 330.416,220.140 328.599 L 222.605 328.268 221.953 326.652 C 215.385 310.363,219.365 296.577,235.454 279.885 C 243.509 271.528,253.590 255.786,256.951 246.317 C 259.321 239.638,261.732 235.471,265.023 232.367 C 275.164 222.800,289.761 226.913,294.985 240.809 L 295.423 241.973 297.737 238.841 C 304.027 230.328,308.350 226.131,313.699 223.346 C 321.912 219.069,330.149 219.636,335.668 224.860 C 336.574 225.718,337.345 226.387,337.381 226.345 C 337.556 226.139,339.138 219.569,339.821 216.211 C 357.628 128.588,291.083 46.632,201.465 45.812 C 197.383 45.775,193.647 45.776,193.164 45.815 M95.693 75.146 L 95.020 75.879 95.752 75.206 C 96.155 74.836,96.484 74.506,96.484 74.473 C 96.484 74.324,96.319 74.465,95.693 75.146 M303.906 75.061 C 303.906 75.095,304.192 75.380,304.541 75.696 L 305.176 76.270 304.602 75.635 C 304.067 75.043,303.906 74.910,303.906 75.061 M90.915 79.736 L 88.184 82.520 90.967 79.788 C 93.552 77.250,93.838 76.953,93.699 76.953 C 93.670 76.953,92.418 78.206,90.915 79.736 M308.887 79.883 C 309.849 80.850,310.680 81.641,310.734 81.641 C 310.788 81.641,310.044 80.850,309.082 79.883 C 308.120 78.916,307.288 78.125,307.235 78.125 C 307.181 78.125,307.924 78.916,308.887 79.883 M313.086 84.277 C 313.450 84.653,313.792 84.961,313.846 84.961 C 313.900 84.961,313.646 84.653,313.281 84.277 C 312.917 83.901,312.575 83.594,312.521 83.594 C 312.467 83.594,312.722 83.901,313.086 84.277 M149.896 120.610 C 163.265 122.941,170.945 137.522,165.133 149.541 C 163.634 152.639,162.513 152.795,156.936 150.681 C 149.920 148.022,148.557 148.384,144.583 153.954 C 139.951 160.449,138.774 160.780,133.845 156.973 C 125.480 150.512,123.463 138.387,129.285 129.559 C 133.761 122.773,141.939 119.222,149.896 120.610 M252.758 120.599 C 270.426 123.693,275.934 146.186,261.705 157.139 C 257.188 160.617,255.579 160.197,251.563 154.492 C 249.678 151.814,248.053 150.127,246.739 149.484 C 244.941 148.605,243.885 148.801,237.251 151.247 C 233.023 152.806,231.728 152.356,230.270 148.819 C 224.131 133.932,236.960 117.832,252.758 120.599 M107.967 142.102 C 117.665 144.065,121.945 155.666,115.798 163.329 C 109.672 170.966,97.752 169.743,93.440 161.035 C 88.531 151.120,97.133 139.909,107.967 142.102 M300.488 142.457 C 310.067 145.531,312.969 157.388,305.873 164.462 C 297.213 173.095,282.722 166.666,283.249 154.424 C 283.623 145.753,292.202 139.798,300.488 142.457 M46.334 178.320 C 46.334 178.696,46.375 178.850,46.424 178.662 C 46.473 178.474,46.473 178.167,46.424 177.979 C 46.375 177.791,46.334 177.944,46.334 178.320 M353.366 178.711 C 353.366 179.087,353.406 179.241,353.455 179.053 C 353.504 178.865,353.504 178.557,353.455 178.369 C 353.406 178.181,353.366 178.335,353.366 178.711 M46.152 182.227 C 46.152 182.817,46.189 183.059,46.234 182.764 C 46.278 182.468,46.278 181.985,46.234 181.689 C 46.189 181.394,46.152 181.636,46.152 182.227 M353.578 183.203 C 353.578 183.901,353.614 184.187,353.657 183.838 C 353.700 183.489,353.700 182.917,353.657 182.568 C 353.614 182.219,353.578 182.505,353.578 183.203 M151.322 187.029 C 153.499 187.478,155.588 188.353,162.598 191.747 C 184.340 202.275,194.834 204.505,209.180 201.643 C 216.242 200.233,222.434 197.888,234.329 192.114 C 249.951 184.532,252.257 184.768,252.240 193.945 C 252.213 208.321,244.699 225.087,233.984 234.677 C 220.118 247.089,199.051 250.857,179.980 244.337 C 161.091 237.880,147.165 218.391,145.496 196.078 C 144.924 188.442,146.479 186.028,151.322 187.029 M353.576 192.480 C 353.577 193.125,353.614 193.365,353.657 193.014 C 353.701 192.663,353.700 192.136,353.655 191.842 C 353.611 191.549,353.575 191.836,353.576 192.480 M46.152 193.555 C 46.152 194.146,46.189 194.387,46.234 194.092 C 46.278 193.796,46.278 193.313,46.234 193.018 C 46.189 192.722,46.152 192.964,46.152 193.555 M353.366 196.875 C 353.366 197.251,353.406 197.405,353.455 197.217 C 353.504 197.029,353.504 196.721,353.455 196.533 C 353.406 196.345,353.366 196.499,353.366 196.875 M46.334 197.461 C 46.334 197.837,46.375 197.991,46.424 197.803 C 46.473 197.615,46.473 197.307,46.424 197.119 C 46.375 196.931,46.334 197.085,46.334 197.461 M74.799 231.732 C 72.358 232.521,70.896 235.228,70.900 238.952 C 70.907 246.250,73.345 249.645,92.870 269.543 C 105.295 282.206,108.242 286.524,105.994 288.772 C 103.666 291.100,98.539 288.855,91.879 282.593 C 74.680 266.422,54.478 253.340,46.614 253.282 C 41.250 253.242,38.241 259.378,41.327 264.063 C 44.202 268.429,48.491 271.570,65.723 281.929 C 89.435 296.184,93.566 299.975,90.967 305.097 C 89.674 307.645,87.888 306.947,72.976 298.060 C 56.841 288.445,49.501 284.938,43.500 283.977 C 38.418 283.163,35.453 285.364,35.450 289.952 C 35.447 295.808,41.055 299.993,57.715 306.569 C 65.945 309.818,69.952 311.461,72.220 312.519 C 79.174 315.762,81.966 319.016,80.420 322.076 C 78.711 325.459,74.685 324.419,61.426 317.172 C 46.748 309.149,40.970 307.673,37.635 311.096 C 32.239 316.634,40.232 324.320,59.766 332.379 C 83.115 342.010,105.330 346.949,125.391 346.966 C 149.994 346.988,163.032 339.280,169.409 320.943 C 173.341 309.640,170.390 300.990,158.203 288.087 C 147.681 276.948,137.289 260.551,133.289 248.776 C 129.486 237.582,121.585 234.617,117.298 242.775 C 112.472 251.959,115.742 263.321,125.406 270.949 C 132.444 276.503,133.747 281.833,128.692 284.384 C 123.668 286.921,118.695 284.625,115.043 278.082 C 104.328 258.885,93.458 242.761,87.085 236.612 C 83.106 232.772,77.936 230.719,74.799 231.732 M322.197 231.742 C 313.923 233.835,304.197 246.235,286.538 277.204 C 282.734 283.875,279.726 285.923,274.864 285.152 C 267.067 283.916,267.572 277.350,275.977 270.675 C 285.213 263.340,288.512 251.945,283.956 243.120 C 279.519 234.526,271.891 237.252,267.780 248.902 C 263.439 261.204,253.101 277.401,242.583 288.379 C 229.734 301.789,227.147 311.789,233.186 324.689 C 239.294 337.738,247.923 343.939,263.243 346.291 C 278.765 348.673,302.702 345.669,324.178 338.643 C 353.185 329.152,367.808 319.829,364.607 312.865 C 361.977 307.144,355.990 308.217,339.187 317.424 C 326.736 324.247,322.456 325.364,320.710 322.246 C 318.581 318.443,323.008 314.607,334.961 309.899 C 336.733 309.201,340.776 307.605,343.945 306.352 C 359.397 300.245,365.296 295.878,365.587 290.331 C 365.836 285.581,362.866 283.205,357.634 283.970 C 351.736 284.832,343.940 288.582,326.953 298.728 C 313.087 307.009,311.365 307.632,309.942 304.883 C 307.447 300.063,311.961 296.011,335.856 281.627 C 358.747 267.848,363.231 263.417,360.403 257.372 C 358.034 252.311,353.558 251.956,345.020 256.152 C 336.220 260.477,319.728 272.616,309.769 282.098 C 302.364 289.149,296.564 291.518,294.654 288.273 C 293.694 286.642,295.157 283.843,299.794 278.441 C 301.676 276.248,304.405 273.396,313.182 264.445 C 327.216 250.133,330.078 245.859,330.078 239.209 C 330.078 233.213,327.191 230.478,322.197 231.742 M45.758 242.331 C 46.271 242.372,47.062 242.371,47.516 242.330 C 47.969 242.289,47.549 242.256,46.582 242.257 C 45.615 242.257,45.244 242.291,45.758 242.331 M353.564 242.331 C 354.075 242.371,354.910 242.371,355.420 242.331 C 355.930 242.291,355.513 242.258,354.492 242.258 C 353.472 242.258,353.054 242.291,353.564 242.331 M34.656 246.924 L 34.082 247.559 34.717 246.985 C 35.066 246.669,35.352 246.384,35.352 246.350 C 35.352 246.199,35.190 246.332,34.656 246.924 M28.967 260.059 C 28.968 260.703,29.004 260.943,29.048 260.592 C 29.091 260.241,29.090 259.714,29.046 259.420 C 29.001 259.127,28.966 259.414,28.967 260.059 M376.631 289.844 C 376.631 290.757,376.664 291.130,376.706 290.674 C 376.747 290.217,376.747 289.470,376.706 289.014 C 376.664 288.557,376.631 288.931,376.631 289.844 M29.314 303.786 L 28.842 304.395 29.401 303.863 C 29.708 303.571,29.920 303.297,29.872 303.254 C 29.824 303.212,29.573 303.451,29.314 303.786 M376.032 314.746 C 376.034 315.283,376.072 315.480,376.117 315.183 C 376.162 314.886,376.160 314.447,376.114 314.206 C 376.068 313.966,376.031 314.209,376.032 314.746 M31.152 328.320 C 31.790 328.965,32.356 329.492,32.410 329.492 C 32.463 329.492,31.985 328.965,31.348 328.320 C 30.710 327.676,30.144 327.148,30.090 327.148 C 30.037 327.148,30.515 327.676,31.152 328.320 M190.088 340.760 C 190.276 340.809,190.583 340.809,190.771 340.760 C 190.959 340.711,190.806 340.670,190.430 340.670 C 190.054 340.670,189.900 340.711,190.088 340.760 M209.033 340.760 C 209.221 340.809,209.529 340.809,209.717 340.760 C 209.905 340.711,209.751 340.670,209.375 340.670 C 208.999 340.670,208.845 340.711,209.033 340.760 M193.994 340.960 C 194.290 341.005,194.773 341.005,195.068 340.960 C 195.364 340.915,195.122 340.879,194.531 340.879 C 193.940 340.879,193.699 340.915,193.994 340.960 M204.736 340.960 C 205.032 341.005,205.515 341.005,205.811 340.960 C 206.106 340.915,205.864 340.879,205.273 340.879 C 204.683 340.879,204.441 340.915,204.736 340.960 M231.641 342.639 C 231.641 342.673,231.926 342.958,232.275 343.274 L 232.910 343.848 232.337 343.213 C 231.802 342.621,231.641 342.488,231.641 342.639 M233.594 344.592 C 233.594 344.626,233.879 344.912,234.229 345.227 L 234.863 345.801 234.290 345.166 C 233.755 344.574,233.594 344.441,233.594 344.592 M118.018 357.947 C 118.206 357.996,118.513 357.996,118.701 357.947 C 118.889 357.898,118.735 357.858,118.359 357.858 C 117.983 357.858,117.830 357.898,118.018 357.947 M122.320 358.152 C 122.834 358.192,123.625 358.191,124.078 358.151 C 124.531 358.110,124.111 358.077,123.145 358.077 C 122.178 358.078,121.807 358.111,122.320 358.152 M126.123 358.152 C 126.794 358.191,127.893 358.191,128.564 358.152 C 129.236 358.114,128.687 358.083,127.344 358.083 C 126.001 358.083,125.452 358.114,126.123 358.152 M272.615 358.153 C 273.291 358.191,274.345 358.191,274.959 358.152 C 275.572 358.113,275.020 358.082,273.730 358.082 C 272.441 358.083,271.939 358.114,272.615 358.153 M277.100 358.151 C 277.556 358.192,278.303 358.192,278.760 358.151 C 279.216 358.110,278.843 358.076,277.930 358.076 C 277.017 358.076,276.643 358.110,277.100 358.151 " stroke="none" fill="#fcd41c" fill-rule="evenodd"></path><path id="path3" d="M192.773 34.882 C 184.837 35.403,180.979 35.799,175.684 36.636 C 79.755 51.800,21.430 151.934,56.033 242.055 C 56.765 243.962,56.917 244.528,56.671 244.430 C 48.139 241.034,40.341 241.813,35.196 246.576 C 27.558 253.648,27.059 263.994,33.945 272.515 C 34.533 273.244,34.981 273.871,34.939 273.908 C 34.897 273.946,34.292 274.262,33.594 274.609 C 23.617 279.577,21.390 292.802,28.957 302.154 L 29.909 303.331 29.007 304.335 C 22.818 311.219,23.986 321.262,31.855 328.813 C 41.869 338.424,69.893 349.777,96.387 354.955 C 132.721 362.058,159.163 356.839,171.290 340.171 C 172.512 338.492,172.444 338.514,175.000 338.966 C 189.974 341.612,208.411 341.610,224.762 338.960 C 226.404 338.694,227.914 338.477,228.118 338.477 C 228.357 338.477,228.971 339.117,229.848 340.283 C 242.158 356.635,267.320 361.850,302.591 355.358 C 326.428 350.971,353.477 340.853,365.743 331.737 C 376.569 323.690,379.102 312.938,372.175 304.434 C 371.163 303.192,371.144 303.121,371.692 302.625 C 372.382 302.002,373.765 299.941,374.581 298.324 C 379.121 289.320,375.721 278.297,367.220 274.465 C 366.611 274.190,366.081 273.939,366.042 273.907 C 366.003 273.875,366.408 273.339,366.942 272.715 C 372.879 265.784,373.627 257.350,368.936 250.228 C 363.764 242.378,355.410 240.327,344.840 244.312 C 343.667 244.754,342.680 245.089,342.648 245.057 C 342.615 245.024,342.981 244.003,343.460 242.787 C 353.724 216.761,356.332 186.032,350.671 157.813 C 337.731 93.308,284.435 43.944,219.084 35.934 C 211.983 35.063,198.327 34.517,192.773 34.882 M212.109 46.181 C 295.196 53.930,353.440 127.849,340.997 209.755 C 340.306 214.302,337.784 225.872,337.381 226.345 C 337.345 226.387,336.574 225.718,335.668 224.860 C 330.149 219.636,321.912 219.069,313.699 223.346 C 308.350 226.131,304.027 230.328,297.737 238.841 L 295.423 241.973 294.985 240.809 C 289.761 226.913,275.164 222.800,265.023 232.367 C 261.732 235.471,259.321 239.638,256.951 246.317 C 253.590 255.786,243.509 271.528,235.454 279.885 C 219.365 296.577,215.385 310.363,221.953 326.652 L 222.605 328.268 220.140 328.599 C 206.621 330.416,193.919 330.444,180.259 328.686 L 178.388 328.445 179.232 326.306 C 183.915 314.432,182.629 302.671,175.451 291.710 C 173.042 288.031,170.808 285.325,166.420 280.768 C 157.304 271.300,147.232 255.554,143.742 245.313 C 140.308 235.237,134.266 228.874,126.785 227.458 C 117.993 225.793,109.648 231.241,105.964 241.052 L 105.621 241.967 103.958 239.685 C 96.002 228.768,90.729 224.130,83.477 221.671 C 75.774 219.060,68.201 220.932,63.797 226.536 L 62.802 227.802 62.545 226.938 C 54.038 198.254,55.571 164.876,66.702 136.426 C 86.668 85.397,135.006 49.715,189.063 46.102 C 190.835 45.983,192.681 45.855,193.164 45.815 C 195.377 45.636,209.114 45.901,212.109 46.181 M234.659 126.416 L 233.887 127.246 234.717 126.474 C 235.173 126.049,235.547 125.676,235.547 125.644 C 235.547 125.496,235.377 125.644,234.659 126.416 M263.770 126.367 C 264.189 126.797,264.576 127.148,264.630 127.148 C 264.684 127.148,264.384 126.797,263.965 126.367 C 263.545 125.937,263.158 125.586,263.104 125.586 C 263.051 125.586,263.350 125.937,263.770 126.367 M269.792 140.820 C 269.792 141.626,269.827 141.956,269.869 141.553 C 269.911 141.150,269.911 140.491,269.869 140.088 C 269.827 139.685,269.792 140.015,269.792 140.820 M167.045 141.016 C 167.045 141.499,167.083 141.697,167.130 141.455 C 167.177 141.213,167.177 140.818,167.130 140.576 C 167.083 140.334,167.045 140.532,167.045 141.016 M102.970 142.015 C 96.861 143.031,91.981 148.859,91.996 155.117 C 92.025 167.643,107.935 173.132,115.798 163.329 C 123.374 153.883,115.023 140.008,102.970 142.015 M293.848 142.073 C 283.295 144.517,279.566 156.900,287.106 164.462 C 295.730 173.111,310.242 166.670,309.721 154.424 C 309.379 146.392,301.539 140.292,293.848 142.073 M248.730 150.977 C 249.150 151.406,249.537 151.758,249.591 151.758 C 249.645 151.758,249.345 151.406,248.926 150.977 C 248.506 150.547,248.119 150.195,248.065 150.195 C 248.012 150.195,248.311 150.547,248.730 150.977 M233.350 152.091 C 233.591 152.138,233.987 152.138,234.229 152.091 C 234.470 152.044,234.272 152.006,233.789 152.006 C 233.306 152.006,233.108 152.044,233.350 152.091 M141.492 157.861 L 140.918 158.496 141.553 157.922 C 141.902 157.607,142.188 157.321,142.188 157.288 C 142.188 157.137,142.026 157.270,141.492 157.861 M149.172 186.857 C 149.415 186.904,149.767 186.902,149.953 186.853 C 150.140 186.804,149.941 186.766,149.512 186.768 C 149.082 186.770,148.929 186.810,149.172 186.857 M247.803 186.857 C 248.044 186.903,248.440 186.903,248.682 186.857 C 248.923 186.810,248.726 186.772,248.242 186.772 C 247.759 186.772,247.561 186.810,247.803 186.857 M145.379 193.457 C 145.380 194.316,145.415 194.644,145.456 194.184 C 145.497 193.725,145.496 193.022,145.454 192.622 C 145.413 192.222,145.379 192.598,145.379 193.457 M80.311 232.227 C 84.653 233.798,88.341 237.155,93.935 244.629 C 99.723 252.361,108.074 265.596,115.043 278.082 C 118.695 284.625,123.668 286.921,128.692 284.384 C 133.747 281.833,132.444 276.503,125.406 270.949 C 115.742 263.321,112.472 251.959,117.298 242.775 C 121.585 234.617,129.486 237.582,133.289 248.776 C 137.289 260.551,147.681 276.948,158.203 288.087 C 171.574 302.243,174.030 311.672,167.790 324.902 C 161.936 337.315,153.297 343.705,139.160 346.077 C 124.914 348.467,102.274 346.226,82.813 340.499 C 48.790 330.486,30.403 318.519,37.635 311.096 C 40.970 307.673,46.748 309.149,61.426 317.172 C 74.685 324.419,78.711 325.459,80.420 322.076 C 81.966 319.016,79.174 315.762,72.220 312.519 C 69.952 311.461,65.945 309.818,57.715 306.569 C 41.055 299.993,35.447 295.808,35.450 289.952 C 35.453 285.364,38.418 283.163,43.500 283.977 C 49.501 284.938,56.841 288.445,72.976 298.060 C 87.888 306.947,89.674 307.645,90.967 305.097 C 93.566 299.975,89.435 296.184,65.723 281.929 C 48.491 271.570,44.202 268.429,41.327 264.063 C 38.241 259.378,41.250 253.242,46.614 253.282 C 54.478 253.340,74.680 266.422,91.879 282.593 C 98.539 288.855,103.666 291.100,105.994 288.772 C 108.242 286.524,105.295 282.206,92.870 269.543 C 75.248 251.584,72.000 247.471,71.194 242.090 C 69.925 233.627,73.498 229.762,80.311 232.227 M326.881 231.995 C 329.147 233.150,330.078 235.252,330.078 239.209 C 330.078 245.859,327.216 250.133,313.182 264.445 C 304.405 273.396,301.676 276.248,299.794 278.441 C 295.157 283.843,293.694 286.642,294.654 288.273 C 296.564 291.518,302.364 289.149,309.769 282.098 C 319.728 272.616,336.220 260.477,345.020 256.152 C 353.558 251.956,358.034 252.311,360.403 257.372 C 363.231 263.417,358.747 267.848,335.856 281.627 C 311.961 296.011,307.447 300.063,309.942 304.883 C 311.365 307.632,313.087 307.009,326.953 298.728 C 343.940 288.582,351.736 284.832,357.634 283.970 C 362.866 283.205,365.836 285.581,365.587 290.331 C 365.296 295.878,359.397 300.245,343.945 306.352 C 340.776 307.605,336.733 309.201,334.961 309.899 C 323.008 314.607,318.581 318.443,320.710 322.246 C 322.456 325.364,326.736 324.247,339.187 317.424 C 355.990 308.217,361.977 307.144,364.607 312.865 C 370.115 324.847,315.385 346.310,277.539 347.010 C 253.402 347.457,240.898 341.164,233.186 324.689 C 227.147 311.789,229.734 301.789,242.583 288.379 C 253.101 277.401,263.439 261.204,267.780 248.902 C 271.891 237.252,279.519 234.526,283.956 243.120 C 288.512 251.945,285.213 263.340,275.977 270.675 C 267.572 277.350,267.067 283.916,274.864 285.152 C 279.726 285.923,282.734 283.875,286.538 277.204 C 299.908 253.756,310.738 238.319,316.578 234.384 C 320.431 231.788,324.587 230.824,326.881 231.995 M235.536 233.154 L 234.863 233.887 235.596 233.214 C 235.999 232.843,236.328 232.514,236.328 232.481 C 236.328 232.332,236.163 232.473,235.536 233.154 M193.408 247.205 C 193.596 247.254,193.904 247.254,194.092 247.205 C 194.280 247.156,194.126 247.116,193.750 247.116 C 193.374 247.116,193.220 247.156,193.408 247.205 M203.760 247.205 C 203.948 247.254,204.255 247.254,204.443 247.205 C 204.631 247.156,204.478 247.116,204.102 247.116 C 203.726 247.116,203.572 247.156,203.760 247.205 M197.412 247.411 C 198.191 247.448,199.465 247.448,200.244 247.411 C 201.023 247.374,200.386 247.343,198.828 247.343 C 197.271 247.343,196.633 247.374,197.412 247.411 " stroke="none" fill="#fbb006" fill-rule="evenodd"></path><path id="path4" d="M198.486 202.869 C 198.674 202.918,198.982 202.918,199.170 202.869 C 199.358 202.820,199.204 202.780,198.828 202.780 C 198.452 202.780,198.298 202.820,198.486 202.869 M187.891 220.212 C 182.230 222.274,177.006 225.827,173.090 230.277 C 170.644 233.057,167.680 237.697,168.100 238.089 C 169.246 239.158,174.705 242.173,177.734 243.409 C 191.131 248.878,209.240 248.522,221.933 242.541 C 225.314 240.948,230.682 237.676,231.145 236.925 C 231.373 236.558,229.182 233.230,227.008 230.638 C 223.279 226.194,217.419 222.155,211.880 220.212 C 209.390 219.339,208.749 219.803,205.269 225.008 C 200.190 232.603,199.496 232.493,193.737 223.187 C 191.525 219.612,190.695 219.190,187.891 220.212 " stroke="none" fill="#eb4c4b" fill-rule="evenodd"></path></g></svg>