<svg id="svg" version="1.1" xmlns="http://www.w3.org/2000/svg" xmlns:xlink="http://www.w3.org/1999/xlink" width="400" height="400" viewBox="0, 0, 400,400"><g id="svgg"><path id="path0" d="M182.000 73.236 C 156.793 75.363,134.667 92.150,126.744 115.159 L 125.957 117.443 124.416 117.743 C 119.411 118.717,110.261 122.496,105.186 125.686 C 72.467 146.251,65.158 191.821,89.885 221.086 L 91.542 223.048 90.895 225.336 C 78.049 270.831,117.286 314.431,163.567 306.091 L 165.760 305.696 169.072 308.912 C 202.150 341.027,258.902 327.972,273.760 284.830 L 274.550 282.535 275.562 282.365 C 280.632 281.508,289.837 277.756,295.314 274.314 C 328.033 253.749,335.342 208.179,310.615 178.914 L 308.958 176.952 309.605 174.664 C 322.454 129.157,283.213 85.567,236.910 93.913 L 234.695 94.312 231.910 91.565 C 218.549 78.384,200.321 71.691,182.000 73.236 M191.125 89.760 C 200.325 90.627,210.522 94.708,216.728 100.006 C 217.530 100.691,220.067 99.126,190.625 116.110 C 162.832 132.144,163.079 131.986,161.902 134.500 C 161.375 135.624,161.375 135.654,161.250 172.421 L 161.125 209.217 150.810 203.261 C 145.137 199.985,140.215 197.121,139.873 196.896 L 139.250 196.488 139.250 166.038 C 139.250 130.127,139.279 129.625,141.767 122.152 C 148.712 101.292,169.404 87.712,191.125 89.760 M254.250 109.882 C 275.911 112.961,292.235 129.385,295.242 151.125 C 295.601 153.720,295.561 161.119,295.176 163.421 L 294.875 165.217 268.500 149.978 C 242.597 135.011,240.707 134.000,238.625 134.000 C 236.539 134.000,234.558 135.071,204.000 152.727 L 172.875 170.710 172.810 158.182 C 172.774 151.292,172.831 145.570,172.935 145.467 C 173.096 145.309,204.444 127.161,221.269 117.486 C 233.396 110.513,243.041 108.289,254.250 109.882 M122.808 166.438 C 122.884 201.643,122.685 198.613,125.093 201.135 C 126.214 202.308,130.288 204.735,157.438 220.397 C 174.522 230.252,188.498 238.385,188.496 238.470 C 188.492 238.605,168.471 250.261,167.245 250.842 C 166.473 251.209,113.825 220.716,109.789 217.565 C 84.114 197.516,86.084 157.651,113.625 139.938 C 116.026 138.394,121.749 135.557,122.558 135.511 C 122.658 135.505,122.771 149.422,122.808 166.438 M260.000 164.119 C 291.734 182.450,290.289 181.535,295.032 186.309 C 316.436 207.857,312.454 243.566,286.800 260.113 C 285.061 261.235,279.500 264.024,278.317 264.368 L 277.760 264.531 277.692 233.578 C 277.616 198.355,277.815 201.387,275.407 198.865 C 274.286 197.692,270.214 195.267,243.063 179.604 C 225.978 169.749,212.002 161.616,212.005 161.531 C 212.015 161.232,233.378 149.012,233.750 149.092 C 233.956 149.137,245.769 155.899,260.000 164.119 M214.048 176.157 L 227.750 184.064 227.750 200.000 L 227.750 215.936 214.000 223.870 L 200.250 231.805 186.500 223.870 L 172.750 215.936 172.750 200.001 L 172.750 184.067 186.438 176.162 C 193.966 171.815,200.175 168.256,200.235 168.254 C 200.296 168.252,206.512 171.808,214.048 176.157 M250.125 196.995 C 255.900 200.325,260.766 203.166,260.938 203.306 C 261.342 203.636,261.394 262.994,260.994 267.036 C 257.947 297.795,227.745 317.596,198.500 308.010 C 194.025 306.543,186.854 302.637,183.750 299.975 L 183.125 299.440 183.735 299.032 C 184.070 298.808,196.051 291.864,210.360 283.601 C 234.372 269.734,236.456 268.478,237.427 267.292 C 239.378 264.908,239.250 267.743,239.250 227.065 C 239.250 207.075,239.334 190.770,239.438 190.829 C 239.541 190.889,244.350 193.664,250.125 196.995 M227.565 254.533 C 227.119 254.973,175.883 284.465,173.500 285.653 C 148.089 298.323,116.843 285.445,107.543 258.469 C 105.215 251.716,104.300 242.695,105.324 236.580 L 105.625 234.784 132.000 250.022 C 157.914 264.993,159.797 266.000,161.875 266.000 C 163.959 266.000,165.933 264.932,196.500 247.273 L 227.625 229.292 227.690 241.819 C 227.726 248.708,227.669 254.430,227.565 254.533 " stroke="none" fill="#fbfbfb" fill-rule="evenodd"></path><path id="path1" d="M183.063 73.172 C 183.303 73.235,183.697 73.235,183.938 73.172 C 184.178 73.109,183.981 73.058,183.500 73.058 C 183.019 73.058,182.822 73.109,183.063 73.172 M190.063 73.172 C 190.303 73.235,190.697 73.235,190.938 73.172 C 191.178 73.109,190.981 73.058,190.500 73.058 C 190.019 73.058,189.822 73.109,190.063 73.172 M184.813 89.679 C 185.191 89.736,185.809 89.736,186.188 89.679 C 186.566 89.622,186.256 89.575,185.500 89.575 C 184.744 89.575,184.434 89.622,184.813 89.679 M187.563 89.679 C 187.941 89.736,188.559 89.736,188.938 89.679 C 189.316 89.622,189.006 89.575,188.250 89.575 C 187.494 89.575,187.184 89.622,187.563 89.679 M232.000 91.625 C 232.747 92.381,233.414 93.000,233.483 93.000 C 233.552 93.000,232.997 92.381,232.250 91.625 C 231.503 90.869,230.836 90.250,230.767 90.250 C 230.698 90.250,231.253 90.869,232.000 91.625 M247.194 92.933 C 247.782 92.986,248.682 92.985,249.194 92.932 C 249.706 92.878,249.225 92.835,248.125 92.836 C 247.025 92.837,246.606 92.881,247.194 92.933 M94.000 134.375 C 93.393 134.994,92.952 135.500,93.021 135.500 C 93.090 135.500,93.643 134.994,94.250 134.375 C 94.857 133.756,95.298 133.250,95.229 133.250 C 95.160 133.250,94.607 133.756,94.000 134.375 M139.371 165.500 C 139.371 182.619,139.401 189.622,139.437 181.063 C 139.474 172.503,139.474 158.497,139.437 149.938 C 139.401 141.378,139.371 148.381,139.371 165.500 M105.487 146.438 L 104.625 147.375 105.563 146.513 C 106.435 145.712,106.615 145.500,106.424 145.500 C 106.382 145.500,105.960 145.922,105.487 146.438 M312.063 154.125 C 312.066 154.675,312.117 154.871,312.177 154.560 C 312.237 154.249,312.234 153.799,312.172 153.560 C 312.109 153.321,312.060 153.575,312.063 154.125 M312.058 159.750 C 312.058 160.231,312.109 160.428,312.172 160.188 C 312.235 159.947,312.235 159.553,312.172 159.313 C 312.109 159.072,312.058 159.269,312.058 159.750 M75.058 176.750 C 75.058 177.231,75.109 177.428,75.172 177.188 C 75.235 176.947,75.235 176.553,75.172 176.313 C 75.109 176.072,75.058 176.269,75.058 176.750 M91.582 180.125 C 91.583 181.088,91.628 181.451,91.682 180.932 C 91.737 180.413,91.736 179.626,91.680 179.182 C 91.625 178.738,91.581 179.162,91.582 180.125 M294.750 186.125 C 295.216 186.606,295.654 187.000,295.723 187.000 C 295.792 187.000,295.466 186.606,295.000 186.125 C 294.534 185.644,294.096 185.250,294.027 185.250 C 293.958 185.250,294.284 185.644,294.750 186.125 M261.121 234.500 C 261.121 251.619,261.151 258.622,261.187 250.063 C 261.224 241.503,261.224 227.497,261.187 218.938 C 261.151 210.378,261.121 217.381,261.121 234.500 M105.500 213.875 C 105.966 214.356,106.404 214.750,106.473 214.750 C 106.542 214.750,106.216 214.356,105.750 213.875 C 105.284 213.394,104.846 213.000,104.777 213.000 C 104.708 213.000,105.034 213.394,105.500 213.875 M308.832 219.875 C 308.833 220.838,308.878 221.201,308.932 220.682 C 308.987 220.163,308.986 219.376,308.930 218.932 C 308.875 218.488,308.831 218.912,308.832 219.875 M325.308 223.250 C 325.308 223.731,325.359 223.928,325.422 223.688 C 325.485 223.447,325.485 223.053,325.422 222.813 C 325.359 222.572,325.308 222.769,325.308 223.250 M88.308 240.250 C 88.308 240.731,88.359 240.928,88.422 240.688 C 88.485 240.447,88.485 240.053,88.422 239.813 C 88.359 239.572,88.308 239.769,88.308 240.250 M88.313 245.875 C 88.316 246.425,88.367 246.621,88.427 246.310 C 88.487 245.999,88.484 245.549,88.422 245.310 C 88.359 245.071,88.310 245.325,88.313 245.875 M294.863 253.563 L 293.875 254.625 294.938 253.637 C 295.926 252.718,296.115 252.500,295.926 252.500 C 295.885 252.500,295.407 252.978,294.863 253.563 M306.250 265.625 C 305.643 266.244,305.202 266.750,305.271 266.750 C 305.340 266.750,305.893 266.244,306.500 265.625 C 307.107 265.006,307.548 264.500,307.479 264.500 C 307.410 264.500,306.857 265.006,306.250 265.625 M118.750 276.625 C 119.216 277.106,119.654 277.500,119.723 277.500 C 119.792 277.500,119.466 277.106,119.000 276.625 C 118.534 276.144,118.096 275.750,118.027 275.750 C 117.958 275.750,118.284 276.144,118.750 276.625 M151.444 307.183 C 152.032 307.236,152.932 307.235,153.444 307.182 C 153.956 307.128,153.475 307.085,152.375 307.086 C 151.275 307.087,150.856 307.131,151.444 307.183 M168.250 308.375 C 168.997 309.131,169.664 309.750,169.733 309.750 C 169.802 309.750,169.247 309.131,168.500 308.375 C 167.753 307.619,167.086 307.000,167.017 307.000 C 166.948 307.000,167.503 307.619,168.250 308.375 M211.566 310.429 C 211.946 310.487,212.508 310.485,212.816 310.426 C 213.123 310.367,212.813 310.320,212.125 310.322 C 211.438 310.323,211.186 310.372,211.566 310.429 M214.313 310.429 C 214.691 310.486,215.309 310.486,215.688 310.429 C 216.066 310.372,215.756 310.325,215.000 310.325 C 214.244 310.325,213.934 310.372,214.313 310.429 M209.563 326.922 C 209.803 326.985,210.197 326.985,210.438 326.922 C 210.678 326.859,210.481 326.808,210.000 326.808 C 209.519 326.808,209.322 326.859,209.563 326.922 M216.563 326.922 C 216.803 326.985,217.197 326.985,217.438 326.922 C 217.678 326.859,217.481 326.808,217.000 326.808 C 216.519 326.808,216.322 326.859,216.563 326.922 " stroke="none" fill="#8c8c8c" fill-rule="evenodd"></path><path id="path2" d="M161.122 173.125 C 161.122 192.925,161.151 200.988,161.187 191.043 C 161.224 181.098,161.224 164.898,161.187 155.043 C 161.151 145.188,161.122 153.325,161.122 173.125 M239.372 226.875 C 239.372 246.675,239.401 254.738,239.437 244.793 C 239.474 234.848,239.474 218.648,239.437 208.793 C 239.401 198.938,239.372 207.075,239.372 226.875 " stroke="none" fill="#6c6c6c" fill-rule="evenodd"></path><path id="path3" d="M258.866 308.313 L 257.625 309.625 258.938 308.384 C 259.659 307.702,260.250 307.111,260.250 307.072 C 260.250 306.885,260.018 307.093,258.866 308.313 " stroke="none" fill="#4c4c4c" fill-rule="evenodd"></path><path id="path4" d="M0.000 200.000 L 0.000 400.000 200.000 400.000 L 400.000 400.000 400.000 200.000 L 400.000 0.000 200.000 0.000 L 0.000 0.000 0.000 200.000 M193.625 73.256 C 208.972 74.972,222.513 81.535,232.916 92.300 L 234.708 94.153 237.291 93.710 C 283.722 85.737,322.801 129.548,309.691 174.875 L 309.113 176.875 311.145 179.394 C 326.894 198.922,329.983 225.241,319.152 247.625 C 310.731 265.027,295.931 277.254,277.512 282.026 C 275.938 282.433,274.635 282.791,274.616 282.821 C 274.598 282.851,274.203 283.944,273.739 285.250 C 258.202 328.994,200.048 341.293,167.584 307.700 L 165.792 305.847 163.209 306.292 C 116.802 314.285,77.700 270.449,90.809 225.125 L 91.387 223.125 89.355 220.606 C 70.161 196.808,70.181 163.594,89.402 139.500 C 97.610 129.211,109.821 121.385,122.988 117.974 C 124.562 117.567,125.865 117.209,125.884 117.179 C 125.902 117.149,126.297 116.056,126.761 114.750 C 134.853 91.966,155.435 76.222,181.125 73.164 C 182.846 72.959,191.544 73.023,193.625 73.256 M180.500 90.112 C 158.913 93.229,142.447 110.056,139.762 131.743 C 139.592 133.119,139.500 144.838,139.500 165.175 L 139.500 196.488 140.119 196.894 C 140.459 197.117,145.268 199.916,150.806 203.114 L 160.875 208.929 161.000 172.402 L 161.125 135.875 161.820 134.459 C 163.089 131.876,163.042 131.906,190.865 115.849 L 217.244 100.625 216.434 99.937 C 207.685 92.503,192.568 88.370,180.500 90.112 M243.750 109.761 C 237.832 110.294,232.112 111.921,226.825 114.576 C 224.767 115.609,175.734 143.821,173.688 145.149 L 172.750 145.757 172.750 158.129 C 172.750 164.933,172.804 170.500,172.870 170.500 C 172.936 170.500,186.746 162.552,203.558 152.838 C 238.176 132.836,236.118 133.944,238.646 133.944 C 241.164 133.944,240.045 133.348,269.375 150.320 C 285.200 159.477,294.685 164.828,294.786 164.653 C 295.381 163.625,295.652 156.427,295.245 152.500 C 292.544 126.470,269.608 107.434,243.750 109.761 M120.750 136.369 C 86.290 151.002,81.556 198.623,112.500 219.359 C 116.312 221.914,166.511 250.785,166.995 250.701 C 167.531 250.608,188.239 238.688,188.246 238.469 C 188.248 238.383,174.272 230.245,157.188 220.384 C 124.980 201.795,124.720 201.631,123.550 199.250 L 122.875 197.875 122.750 166.724 L 122.625 135.572 120.750 136.369 M222.692 155.333 C 216.955 158.656,212.258 161.445,212.255 161.530 C 212.252 161.615,226.228 169.748,243.313 179.602 C 277.208 199.154,276.141 198.469,277.231 201.381 C 277.746 202.758,277.750 202.999,277.750 233.617 L 277.750 264.465 279.297 263.836 C 314.046 249.717,319.092 201.477,288.000 180.640 C 284.563 178.337,234.078 149.246,233.560 149.271 C 233.321 149.282,228.430 152.010,222.692 155.333 M186.375 176.333 L 172.875 184.144 172.875 200.000 L 172.875 215.856 186.375 223.667 C 193.800 227.963,200.044 231.478,200.250 231.478 C 200.456 231.478,206.700 227.964,214.125 223.668 L 227.625 215.858 227.625 200.001 L 227.625 184.144 214.125 176.333 C 206.700 172.037,200.456 168.523,200.250 168.523 C 200.044 168.523,193.800 172.037,186.375 176.333 M239.442 227.545 L 239.375 264.125 238.680 265.541 C 237.411 268.124,237.458 268.094,209.634 284.151 L 183.254 299.375 184.065 300.063 C 195.276 309.578,213.456 312.798,228.333 307.902 C 245.957 302.103,258.438 286.833,260.738 268.257 C 261.145 264.965,261.098 203.640,260.688 203.309 C 260.516 203.171,256.044 200.557,250.750 197.502 C 245.456 194.447,240.762 191.726,240.317 191.456 L 239.510 190.965 239.442 227.545 M196.500 247.390 C 162.515 267.044,164.362 266.050,161.813 266.053 C 159.345 266.056,160.402 266.620,131.125 249.678 C 115.240 240.485,105.815 235.170,105.714 235.346 C 105.119 236.379,104.848 243.573,105.255 247.500 C 108.701 280.710,144.152 300.315,173.758 285.383 C 175.788 284.359,224.849 256.126,226.813 254.851 L 227.750 254.243 227.750 241.871 C 227.750 235.067,227.666 229.508,227.563 229.517 C 227.459 229.527,213.481 237.569,196.500 247.390 " stroke="none" fill="#242424" fill-rule="evenodd"></path></g></svg>